<svg xmlns="http://www.w3.org/2000/svg" xmlns:v="https://svgstorm.com"
viewBox = "0 0 1015 1015"
width="1015"
height="1015">
<g fill="None" fill-opacity="0.0" stroke="#000000" stroke-opacity="0.00" stroke-width="0.3"><path d="
M 0.00 1015.00 
L 1015.00 1015.00
L 1015.00 0.00
L 0.00 0.00
L 0.00 1015.00
M 922.00 43.00 
C 922.77 57.28 920.71 70.83 921.00 85.00
C 787.58 83.15 653.95 85.98 520.00 85.00
C 522.53 71.46 519.98 56.24 521.00 43.00
C 654.90 42.34 789.43 44.29 922.00 43.00
M 922.00 549.00 
C 927.90 696.37 857.77 830.26 734.25 911.25 C 610.73 992.25 431.54 993.27 307.92 912.08 C 184.30 830.90 112.62 696.80 120.00 549.00
C 385.81 549.41 654.16 547.58 922.00 549.00 Z"/>
</g>
<g fill="None" fill-opacity="0.0" stroke="#000000" stroke-opacity="1.00" stroke-width="0.3"><path d="
M 922.00 43.00 
C 789.43 44.29 654.90 42.34 521.00 43.00
C 519.98 56.24 522.53 71.46 520.00 85.00
C 653.95 85.98 787.58 83.15 921.00 85.00
C 920.71 70.83 922.77 57.28 922.00 43.00 Z"/>
</g>
<g fill="None" fill-opacity="0.0" stroke="#000000" stroke-opacity="0.99" stroke-width="0.3"><path d="
M 922.00 549.00 
C 654.16 547.58 385.81 549.41 120.00 549.00
C 112.62 696.80 184.30 830.90 307.92 912.08 C 431.54 993.27 610.73 992.25 734.25 911.25 C 857.77 830.26 927.90 696.37 922.00 549.00
M 501.00 591.00 
C 501.13 703.99 500.81 817.78 501.00 930.00
C 324.39 924.66 170.33 765.79 162.00 591.00
C 275.00 591.00 388.00 591.00 501.00 591.00
M 879.00 591.00 
C 874.20 679.04 836.82 763.53 774.75 826.75 C 712.69 889.98 630.78 924.65 546.00 931.00
C 546.06 818.65 545.95 704.18 546.00 591.00
C 657.00 591.00 768.00 591.00 879.00 591.00 Z"/>
</g>
<g fill="None" fill-opacity="0.0" stroke="#000000" stroke-opacity="0.00" stroke-width="0.3"><path d="
M 501.00 591.00 
C 388.00 591.00 275.00 591.00 162.00 591.00
C 170.33 765.79 324.39 924.66 501.00 930.00
C 500.81 817.78 501.13 703.99 501.00 591.00 Z"/>
</g>
<g fill="None" fill-opacity="0.0" stroke="#000000" stroke-opacity="0.00" stroke-width="0.3"><path d="
M 879.00 591.00 
C 768.00 591.00 657.00 591.00 546.00 591.00
C 545.95 704.18 546.06 818.65 546.00 931.00
C 630.78 924.65 712.69 889.98 774.75 826.75 C 836.82 763.53 874.20 679.04 879.00 591.00 Z"/>
</g>
<g fill="#000000" fill-opacity="0.00" stroke="None">
<path d="
M 0.00 1015.00 
L 1015.00 1015.00
L 1015.00 0.00
L 0.00 0.00
L 0.00 1015.00
M 922.00 43.00 
C 922.77 57.28 920.71 70.83 921.00 85.00
C 787.58 83.15 653.95 85.98 520.00 85.00
C 522.53 71.46 519.98 56.24 521.00 43.00
C 654.90 42.34 789.43 44.29 922.00 43.00
M 922.00 549.00 
C 927.90 696.37 857.77 830.26 734.25 911.25 C 610.73 992.25 431.54 993.27 307.92 912.08 C 184.30 830.90 112.62 696.80 120.00 549.00
C 385.81 549.41 654.16 547.58 922.00 549.00 Z"/>
</g>
<g fill="#000000" fill-opacity="1.00" stroke="None">
<path d="
M 922.00 43.00 
C 789.43 44.29 654.90 42.34 521.00 43.00
C 519.98 56.24 522.53 71.46 520.00 85.00
C 653.95 85.98 787.58 83.15 921.00 85.00
C 920.71 70.83 922.77 57.28 922.00 43.00 Z"/>
</g>
<g fill="#000000" fill-opacity="0.99" stroke="None">
<path d="
M 922.00 549.00 
C 654.16 547.58 385.81 549.41 120.00 549.00
C 112.62 696.80 184.30 830.90 307.92 912.08 C 431.54 993.27 610.73 992.25 734.25 911.25 C 857.77 830.26 927.90 696.37 922.00 549.00
M 501.00 591.00 
C 501.13 703.99 500.81 817.78 501.00 930.00
C 324.39 924.66 170.33 765.79 162.00 591.00
C 275.00 591.00 388.00 591.00 501.00 591.00
M 879.00 591.00 
C 874.20 679.04 836.82 763.53 774.75 826.75 C 712.69 889.98 630.78 924.65 546.00 931.00
C 546.06 818.65 545.95 704.18 546.00 591.00
C 657.00 591.00 768.00 591.00 879.00 591.00 Z"/>
</g>
<g fill="#000000" fill-opacity="0.00" stroke="None">
<path d="
M 501.00 591.00 
C 388.00 591.00 275.00 591.00 162.00 591.00
C 170.33 765.79 324.39 924.66 501.00 930.00
C 500.81 817.78 501.13 703.99 501.00 591.00 Z"/>
</g>
<g fill="#000000" fill-opacity="0.00" stroke="None">
<path d="
M 879.00 591.00 
C 768.00 591.00 657.00 591.00 546.00 591.00
C 545.95 704.18 546.06 818.65 546.00 931.00
C 630.78 924.65 712.69 889.98 774.75 826.75 C 836.82 763.53 874.20 679.04 879.00 591.00 Z"/>
</g>
</svg>