<?xml version="1.0" standalone="no"?>
<!DOCTYPE svg PUBLIC "-//W3C//DTD SVG 20010904//EN"
 "http://www.w3.org/TR/2001/REC-SVG-20010904/DTD/svg10.dtd">
<svg version="1.0" xmlns="http://www.w3.org/2000/svg"
 width="400.000000pt" height="300.000000pt" viewBox="0 0 400.000000 300.000000"
 preserveAspectRatio="xMidYMid meet">

<g transform="translate(0.000000,300.000000) scale(0.100000,-0.100000)"
fill="#000000" stroke="none">
<path d="M1852 2485 c-40 -7 -103 -23 -140 -34 -66 -21 -87 -30 -273 -128 -59
-32 -125 -57 -172 -68 -48 -10 -77 -22 -77 -30 0 -7 16 -27 35 -44 27 -24 45
-31 75 -31 22 0 40 -2 40 -4 0 -2 -16 -27 -35 -56 -57 -85 -78 -172 -72 -298
4 -92 21 -181 33 -170 6 7 66 250 62 253 -2 2 -17 -43 -33 -102 -31 -113 -37
-114 -49 -8 -17 145 39 290 154 399 39 36 68 66 66 66 -2 0 -33 -13 -68 -30
-34 -16 -73 -30 -86 -30 -26 0 -82 26 -82 39 0 4 30 16 67 25 37 9 102 34 145
56 43 22 113 58 157 80 126 65 249 93 411 93 109 1 154 -4 229 -22 141 -35
159 -44 167 -87 8 -41 -8 -129 -33 -182 -27 -57 -111 -135 -183 -170 -51 -24
-180 -66 -180 -59 0 1 7 24 15 51 8 27 15 72 15 100 l0 50 -34 -57 c-47 -78
-99 -140 -144 -171 -51 -35 -56 -33 -34 12 11 20 22 51 26 67 7 28 2 25 -58
-35 -36 -35 -66 -66 -66 -68 0 -9 82 62 91 80 6 11 13 18 16 15 6 -6 -34 -86
-55 -110 -48 -55 65 2 137 69 31 29 63 64 70 78 8 14 18 26 22 26 9 0 -8 -65
-28 -103 -8 -16 -12 -31 -9 -34 2 -3 41 4 85 16 172 43 286 122 342 237 28 57
33 76 33 149 1 72 3 82 16 72 47 -37 99 -132 141 -254 35 -103 37 -129 9 -93
l-20 25 0 -75 0 -74 -41 39 c-22 22 -61 74 -86 115 -49 82 -49 60 1 -35 17
-33 52 -81 78 -107 l47 -48 -30 0 c-51 0 -149 -63 -149 -96 0 -10 -13 -11 -50
-7 -34 4 -55 2 -65 -7 -13 -11 -20 -9 -43 12 -44 42 -91 60 -152 61 -69 0
-137 -34 -169 -86 -19 -31 -26 -35 -82 -41 -34 -3 -83 -6 -110 -6 -46 0 -48 1
-59 38 -13 41 -70 132 -83 132 -5 0 0 -12 11 -27 18 -26 52 -112 52 -133 0 -6
-37 -11 -82 -12 l-83 -1 77 -7 c43 -3 83 -11 89 -17 6 -6 8 -29 3 -61 l-6 -50
-38 39 c-20 21 -43 39 -51 39 -8 0 -3 -9 13 -23 31 -26 54 -69 63 -120 4 -20
11 -35 15 -32 14 8 43 153 38 185 -4 29 -3 30 34 30 32 0 38 -3 38 -22 0 -12
5 -61 11 -109 l11 -87 57 -12 c107 -22 126 -23 140 -6 11 13 11 19 0 32 -11
13 -24 15 -66 10 -30 -3 -64 -4 -78 0 -25 6 -27 13 -41 137 l-6 58 53 -3 c30
-2 54 -7 54 -13 4 -69 49 -135 112 -161 49 -21 130 -17 181 7 61 30 95 85 96
154 1 62 12 78 52 73 20 -2 33 -12 43 -33 40 -85 52 -102 87 -123 51 -30 158
-28 201 4 100 75 93 206 -14 258 -40 20 -42 23 -43 69 0 26 2 47 4 47 2 0 19
-19 36 -42 l32 -43 -6 41 c-21 148 -106 348 -182 433 -41 46 -55 53 -142 82
-179 57 -345 72 -500 44z m778 -653 c39 -19 80 -74 80 -106 0 -36 -35 -88 -71
-108 -92 -49 -219 7 -219 99 0 101 114 164 210 115z m-461 -37 c82 -42 108
-141 54 -206 -95 -112 -293 -54 -293 87 0 47 25 85 74 115 38 23 125 25 165 4z"/>
<path d="M2520 1729 c-13 -24 -5 -38 12 -21 15 15 51 15 66 0 9 -9 12 -9 12 3
0 41 -71 55 -90 18z"/>
<path d="M2056 1664 c-9 -8 -16 -23 -16 -31 0 -14 3 -13 21 2 17 16 25 17 50
8 16 -6 29 -7 29 -3 0 15 -31 40 -50 40 -10 0 -26 -7 -34 -16z"/>
<path d="M2842 2169 c2 -6 8 -10 13 -10 5 0 11 4 13 10 2 6 -4 11 -13 11 -9 0
-15 -5 -13 -11z"/>
<path d="M1806 2107 c-33 -52 -76 -82 -139 -98 -56 -14 -64 -9 -43 23 8 12 18
43 21 68 l6 45 -20 -50 c-22 -53 -52 -85 -81 -85 -23 0 -34 -29 -14 -37 8 -3
46 -3 83 -1 108 8 168 49 206 141 20 49 14 47 -19 -6z"/>
<path d="M2762 2069 c2 -6 8 -10 13 -10 5 0 11 4 13 10 2 6 -4 11 -13 11 -9 0
-15 -5 -13 -11z"/>
<path d="M2857 2066 c-8 -20 20 -43 35 -28 14 14 3 42 -16 42 -7 0 -16 -6 -19
-14z"/>
<path d="M1406 1640 c-99 -30 -124 -158 -45 -225 41 -34 59 -32 26 3 -36 38
-50 87 -36 129 11 34 61 83 85 83 8 0 14 5 14 10 0 11 -4 11 -44 0z"/>
<path d="M1070 1555 c0 -10 7 -15 18 -13 21 4 19 22 -2 26 -10 2 -16 -3 -16
-13z"/>
<path d="M1035 1480 c-4 -7 -3 -16 3 -22 14 -14 45 -2 40 15 -6 16 -34 21 -43
7z"/>
<path d="M1135 1480 c4 -6 11 -8 16 -5 14 9 11 15 -7 15 -8 0 -12 -5 -9 -10z"/>
<path d="M1462 1360 c-28 -12 -45 -54 -36 -93 3 -17 26 -52 51 -78 31 -34 44
-55 41 -71 -4 -31 -42 -32 -46 0 -3 16 -10 22 -29 22 -23 0 -25 -3 -19 -32 8
-40 30 -58 70 -58 37 0 49 7 66 39 19 36 4 79 -46 133 -50 54 -57 91 -16 96
17 3 22 -2 22 -17 0 -16 6 -21 25 -21 30 0 34 27 8 58 -22 25 -60 35 -91 22z"/>
<path d="M1580 1340 c0 -15 7 -20 25 -20 l24 0 3 -132 c3 -129 4 -133 26 -136
22 -3 22 -3 22 132 l0 136 25 0 c18 0 25 5 25 20 0 18 -7 20 -75 20 -68 0 -75
-2 -75 -20z"/>
<path d="M1758 1205 l3 -155 65 0 c62 0 65 1 62 23 -2 18 -10 23 -45 25 l-43
3 0 45 c0 44 0 44 35 44 28 0 35 4 35 20 0 16 -7 20 -35 20 -35 0 -35 0 -35
45 l0 45 45 0 c38 0 45 3 45 20 0 18 -7 20 -67 20 l-68 0 3 -155z"/>
<path d="M1920 1204 l0 -155 23 3 c19 3 22 10 25 61 3 51 5 57 25 57 13 0 33
7 45 16 19 13 22 24 22 78 0 80 -15 96 -88 96 l-52 0 0 -156z m96 90 c9 -34
-7 -78 -29 -82 -14 -3 -17 5 -17 52 0 49 2 56 20 56 13 0 22 -9 26 -26z"/>
<path d="M2090 1205 l0 -155 25 0 c24 0 25 2 25 71 0 70 0 70 26 67 26 -3 27
-5 28 -68 1 -59 3 -65 24 -68 l22 -3 0 155 0 156 -25 0 c-24 0 -25 -2 -25 -65
0 -63 -1 -65 -25 -65 -24 0 -25 2 -25 65 0 63 -1 65 -25 65 l-25 0 0 -155z"/>
<path d="M2280 1205 l0 -155 65 0 c63 0 65 1 65 26 0 24 -3 26 -40 22 l-40 -4
0 48 c0 48 0 48 33 48 26 0 33 4 33 20 0 16 -7 20 -33 20 -32 0 -33 1 -33 45
l0 45 40 0 c33 0 40 3 40 20 0 18 -7 20 -65 20 l-65 0 0 -155z"/>
<path d="M2440 1204 l0 -155 23 3 c21 3 22 7 21 105 0 56 2 100 5 97 4 -3 18
-49 32 -102 24 -90 27 -97 52 -100 l27 -3 0 155 c0 155 0 156 -23 156 -21 0
-22 -3 -19 -80 2 -44 0 -80 -5 -80 -4 0 -17 36 -27 80 l-19 80 -34 0 -33 0 0
-156z"/>
<path d="M1430 855 c0 -102 3 -154 10 -150 6 3 10 37 10 76 l0 69 45 0 45 0 0
-75 c0 -43 4 -75 10 -75 6 0 10 58 10 155 0 97 -4 155 -10 155 -6 0 -10 -32
-10 -75 l0 -75 -45 0 -45 0 0 69 c0 39 -4 73 -10 76 -7 4 -10 -48 -10 -150z"/>
<path d="M1632 863 c-18 -81 -32 -152 -32 -156 0 -19 18 5 23 33 6 28 9 30 56
30 48 0 49 -1 55 -35 4 -19 11 -35 16 -35 13 0 14 -7 -24 160 -44 195 -53 195
-94 3z m67 32 c7 -33 15 -70 18 -82 5 -21 2 -23 -39 -23 l-45 0 20 90 c11 50
23 87 27 83 4 -5 12 -35 19 -68z"/>
<path d="M1794 983 c3 -16 12 -71 21 -123 8 -52 18 -110 21 -127 2 -18 11 -33
18 -33 13 0 22 37 42 170 12 82 20 72 39 -49 13 -85 22 -121 32 -121 7 0 13 3
13 8 0 4 11 72 25 152 14 80 25 146 25 148 0 1 -4 2 -9 2 -4 0 -16 -51 -26
-112 -26 -175 -29 -177 -49 -42 -29 199 -35 201 -65 22 -12 -73 -23 -134 -25
-135 -2 -2 -8 29 -15 69 -27 169 -34 198 -43 198 -5 0 -7 -12 -4 -27z"/>
<path d="M2060 855 c0 -97 4 -155 10 -155 6 0 10 26 10 58 0 56 12 93 26 80 3
-4 23 -35 43 -69 20 -34 41 -64 48 -66 7 -3 -8 32 -34 77 -52 91 -52 83 13
188 14 23 22 42 16 42 -5 0 -31 -36 -58 -80 l-49 -80 -3 80 c-2 44 -7 80 -12
80 -6 0 -10 -63 -10 -155z"/>
<path d="M2240 855 c0 -97 4 -155 10 -155 6 0 10 58 10 155 0 97 -4 155 -10
155 -6 0 -10 -58 -10 -155z"/>
<path d="M2302 853 l2 -158 3 133 c2 76 8 132 13 132 6 0 10 -5 10 -12 0 -22
83 -248 91 -248 5 0 8 71 7 158 l-2 157 -6 -130 c-3 -71 -8 -123 -12 -115 -3
8 -24 64 -45 124 -55 157 -63 151 -61 -41z"/>
<path d="M2490 990 c-18 -18 -20 -33 -20 -135 0 -102 2 -117 20 -135 11 -11
33 -20 48 -20 45 0 62 27 62 98 l0 62 -31 0 c-17 0 -28 -4 -24 -10 3 -5 13
-10 21 -10 12 0 14 -12 12 -56 -2 -47 -7 -58 -24 -65 -14 -5 -29 -2 -43 7 -19
14 -21 24 -21 129 0 105 2 115 21 129 30 21 63 6 67 -30 5 -44 22 -54 22 -13
0 63 -66 93 -110 49z"/>
<path d="M1844 589 c-1 -15 3 -26 7 -23 11 6 12 41 2 47 -5 3 -8 -8 -9 -24z"/>
<path d="M1890 605 c0 -8 2 -15 4 -15 2 0 6 7 10 15 3 8 1 15 -4 15 -6 0 -10
-7 -10 -15z"/>
<path d="M1925 609 c-4 -6 -5 -12 -2 -15 2 -3 7 2 10 11 7 17 1 20 -8 4z"/>
<path d="M1956 607 c3 -10 9 -15 12 -12 3 3 0 11 -7 18 -10 9 -11 8 -5 -6z"/>
<path d="M2122 578 c-2 -51 12 -69 34 -44 8 9 9 11 2 6 -21 -18 -27 -11 -31
38 l-3 47 -2 -47z"/>
<path d="M2193 570 c0 -30 2 -43 4 -27 2 15 2 39 0 55 -2 15 -4 2 -4 -28z"/>
<path d="M2215 609 c-4 -6 -5 -12 -2 -15 2 -3 7 2 10 11 7 17 1 20 -8 4z"/>
<path d="M2247 600 c4 -14 0 -20 -11 -20 -9 0 -16 -2 -16 -4 0 -2 -3 -12 -6
-21 -5 -11 2 -9 20 8 25 24 35 57 17 57 -5 0 -7 -9 -4 -20z"/>
<path d="M1810 570 c0 -5 5 -10 11 -10 5 0 7 5 4 10 -3 6 -8 10 -11 10 -2 0
-4 -4 -4 -10z"/>
<path d="M1936 558 c-17 -24 -13 -39 12 -37 15 1 15 2 -1 6 -17 4 -17 6 -2 29
19 30 12 32 -9 2z"/>
<path d="M2076 558 c-22 -30 -20 -38 7 -37 17 1 18 2 4 6 -17 4 -17 6 -2 29
20 30 12 32 -9 2z"/>
<path d="M2250 547 c0 -8 -8 -18 -17 -20 -17 -4 -17 -5 0 -6 18 -1 35 25 23
36 -3 4 -6 -1 -6 -10z"/>
<path d="M1845 539 c-4 -6 -14 -8 -24 -4 -13 5 -14 4 -3 -6 10 -11 15 -10 29
4 10 9 14 17 11 17 -4 0 -10 -5 -13 -11z"/>
<path d="M1870 546 c0 -2 9 -6 20 -9 11 -3 20 -1 20 4 0 5 -9 9 -20 9 -11 0
-20 -2 -20 -4z"/>
</g>
</svg>
